<svg width="24.000000" height="24.000000" viewBox="0 0 24 24" fill="none" xmlns="http://www.w3.org/2000/svg" xmlns:xlink="http://www.w3.org/1999/xlink">
	<defs>
		<clipPath id="clip2_1777">
			<rect id="spellcheck" rx="-0.500000" width="23.000000" height="23.000000" transform="translate(0.500000 0.500000)" fill="white" fill-opacity="0"/>
		</clipPath>
	</defs>
	<g clip-path="url(#clip2_1777)">
		<path id="Vector" d="M12.91 18C13.71 18 14.24 17.2 13.95 16.47L9.01 4C8.77 3.39 8.18 3 7.53 3C6.88 3 6.3 3.39 6.06 4L1.11 16.47C0.82 17.2 1.37 18 2.16 18C2.63 18 3.04 17.71 3.22 17.27L4.24 14.53L10.8 14.53L11.85 17.28C12.02 17.71 12.44 18 12.91 18ZM5.13 12.23L7.53 5.86L9.94 12.23L5.13 12.23Z" fill="#ADADAD" fill-opacity="1.000000" fill-rule="nonzero"/>
		<path id="Vector" d="M17.03 17.33C17.03 18.06 17.63 18.66 18.37 18.66C19.1 18.66 19.7 18.06 19.7 17.33C19.7 16.6 19.1 16 18.37 16C17.63 16 17.03 16.6 17.03 17.33ZM17.03 9.33C17.03 10.06 17.63 10.66 18.37 10.66C19.1 10.66 19.7 10.06 19.7 9.33C19.7 8.6 19.1 8 18.37 8C17.63 8 17.03 8.6 17.03 9.33ZM17.03 13.33C17.03 14.06 17.63 14.66 18.37 14.66C19.1 14.66 19.7 14.06 19.7 13.33C19.7 12.6 19.1 12 18.37 12C17.63 12 17.03 12.6 17.03 13.33Z" fill="#ADADAD" fill-opacity="1.000000" fill-rule="nonzero"/>
	</g>
</svg>
