<svg width="20.000000" height="10.000000" viewBox="0 0 20 10" fill="none" xmlns="http://www.w3.org/2000/svg" xmlns:xlink="http://www.w3.org/1999/xlink">
	<defs/>
	<g opacity="0.870000">
		<path id="Vector" d="M15 0L11 0L11 2L15 2C16.65 2 18 3.35 18 5C18 6.64 16.65 8 15 8L11 8L11 10L15 10C17.76 10 20 7.76 20 5C20 2.24 17.76 0 15 0ZM9 8L5 8C3.34 8 2 6.64 2 5C2 3.35 3.34 2 5 2L9 2L9 0L5 0C2.23 0 0 2.24 0 5C0 7.76 2.23 10 5 10L9 10L9 8ZM6 4L14 4L14 6L6 6L6 4Z" fill="#ADADAD" fill-opacity="1.000000" fill-rule="nonzero"/>
	</g>
</svg>
