<svg width="17.184937" height="8.345001" viewBox="0 0 17.1849 8.345" fill="none" xmlns="http://www.w3.org/2000/svg" xmlns:xlink="http://www.w3.org/1999/xlink">
	<defs/>
	<path id="Vector" d="M2.42 4.17L4.88 1.71C5.27 1.32 5.27 0.69 4.88 0.3C4.49 -0.09 3.86 -0.09 3.47 0.3L0.29 3.47C-0.1 3.86 -0.1 4.49 0.29 4.88L3.47 8.05C3.86 8.44 4.49 8.44 4.88 8.05C5.27 7.66 5.27 7.03 4.88 6.64L2.42 4.17ZM14.76 4.17L12.3 6.63C11.91 7.02 11.91 7.65 12.3 8.04C12.69 8.43 13.32 8.43 13.71 8.04L16.89 4.87C17.28 4.48 17.28 3.85 16.89 3.46L13.72 0.29C13.33 -0.1 12.7 -0.1 12.31 0.29C11.92 0.68 11.92 1.31 12.31 1.7L14.76 4.17Z" fill="#ADADAD" fill-opacity="1.000000" fill-rule="nonzero"/>
</svg>
