<svg width="20.000000" height="20.000000" viewBox="0 0 20 20" fill="none" xmlns="http://www.w3.org/2000/svg" xmlns:xlink="http://www.w3.org/1999/xlink">
	<defs/>
	<path id="Vector" d="M0 10C0 4.48 4.46 0 9.98 0C15.52 0 20 4.48 20 10C20 15.52 15.52 20 9.98 20C4.46 20 0 15.52 0 10ZM2 10C2 14.42 5.57 18 10 18C14.42 18 18 14.42 18 10C18 5.58 14.42 2 10 2C5.57 2 2 5.58 2 10ZM6.5 9C7.32 9 8 8.32 8 7.5C8 6.67 7.32 6 6.5 6C5.67 6 5 6.67 5 7.5C5 8.32 5.67 9 6.5 9ZM13.5 9C14.32 9 15 8.32 15 7.5C15 6.67 14.32 6 13.5 6C12.67 6 12 6.67 12 7.5C12 8.32 12.67 9 13.5 9ZM6.55 12C7.25 13.19 8.52 14 10 14C11.48 14 12.75 13.19 13.45 12L15.12 12C14.31 14.05 12.33 15.5 10 15.5C7.67 15.5 5.68 14.05 4.88 12L6.55 12Z" fill="#ADADAD" fill-opacity="1.000000" fill-rule="evenodd"/>
</svg>
