<svg width="16.666748" height="13.333336" viewBox="0 0 16.6667 13.3333" fill="none" xmlns="http://www.w3.org/2000/svg" xmlns:xlink="http://www.w3.org/1999/xlink">
	<defs/>
	<path id="Vector" d="M16.01 0.34C15.72 0.12 15.37 0 15 0L1.66 0C1.28 0 0.93 0.12 0.65 0.34C0.25 0.64 0 1.12 0 1.66L0 11.66C0 12.58 0.75 13.33 1.66 13.33L15 13.33C15.91 13.33 16.66 12.58 16.66 11.66L16.66 1.66C16.66 1.12 16.4 0.64 16.01 0.34ZM15 5.69L15 3.33L14.66 3.54L14.46 3.66L13 4.58L8.33 7.5L3.66 4.58L2.19 3.66L2 3.54L1.66 3.33L1.66 11.66L15 11.66L15 5.69ZM2 1.87L2.19 2L4.86 3.66L7.77 5.48L8.33 5.83L8.88 5.48L11.8 3.66L14.46 2L14.66 1.87L15 1.66L1.66 1.66L1.95 1.84L2 1.87Z" fill="#BFBFBF" fill-opacity="1.000000" fill-rule="evenodd"/>
</svg>
