<svg width="16.000000" height="16.000000" viewBox="0 0 16 16" fill="none" xmlns="http://www.w3.org/2000/svg" xmlns:xlink="http://www.w3.org/1999/xlink">
	<defs>
		<clipPath id="clip2_390">
			<rect id="drafts" rx="-0.500000" width="15.000000" height="15.000000" transform="translate(0.500000 0.500000)" fill="white" fill-opacity="0"/>
		</clipPath>
	</defs>
	<rect id="drafts" rx="-0.500000" width="15.000000" height="15.000000" transform="translate(0.500000 0.500000)" fill="#FFFFFF" fill-opacity="0"/>
	<g clip-path="url(#clip2_390)">
		<path id="Vector" d="M14.66 6.33C14.66 5.85 14.41 5.43 14.03 5.19L8 1.66L1.96 5.19C1.58 5.43 1.33 5.85 1.33 6.33L1.33 13C1.33 13.73 1.93 14.33 2.66 14.33L13.33 14.33C14.06 14.33 14.66 13.73 14.66 13L14.66 6.33ZM13.32 6.33L13.32 6.33L8 9.66L2.66 6.33L8 3.21L13.32 6.33ZM2.66 13L2.66 7.89L8 11.24L13.32 7.91L13.33 13L2.66 13Z" fill="#ECBF21" fill-opacity="1.000000" fill-rule="nonzero"/>
	</g>
</svg>
