<svg width="21.000000" height="16.000000" viewBox="0 0 21 16" fill="none" xmlns="http://www.w3.org/2000/svg" xmlns:xlink="http://www.w3.org/1999/xlink">
	<defs/>
	<path id="Vector" d="M12 4C12 1.78 10.21 0 8 0C5.79 0 4 1.78 4 4C4 6.21 5.79 8 8 8C10.21 8 12 6.21 12 4ZM10 4C10 5.1 9.09 6 8 6C6.9 6 6 5.1 6 4C6 2.89 6.9 2 8 2C9.09 2 10 2.89 10 4ZM15 6L21 6L21 8L15 8L15 6ZM0 14L0 16L16 16L16 14C16 11.34 10.67 10 8 10C5.32 10 0 11.34 0 14ZM2 14C2.19 13.29 5.3 12 8 12C10.68 12 13.77 13.28 14 14L2 14Z" fill="#ADADAD" fill-opacity="1.000000" fill-rule="evenodd"/>
</svg>
