<svg width="10.659912" height="10.666656" viewBox="0 0 10.6599 10.6667" fill="none" xmlns="http://www.w3.org/2000/svg" xmlns:xlink="http://www.w3.org/1999/xlink">
	<defs/>
	<path id="Vector" d="M9.09 1.56C8.12 0.6 6.8 0 5.32 0C2.37 0 0 2.38 0 5.33C0 8.28 2.37 10.66 5.32 10.66C7.81 10.66 9.88 8.96 10.48 6.66L9.09 6.66C8.54 8.22 7.06 9.33 5.32 9.33C3.12 9.33 1.32 7.54 1.32 5.33C1.32 3.12 3.12 1.33 5.32 1.33C6.43 1.33 7.41 1.79 8.13 2.51L5.99 4.66L10.65 4.66L10.65 0L9.09 1.56Z" fill="#F6F6F6" fill-opacity="1.000000" fill-rule="nonzero"/>
</svg>
