<svg width="13.024170" height="13.024994" viewBox="0 0 13.0242 13.025" fill="none" xmlns="http://www.w3.org/2000/svg" xmlns:xlink="http://www.w3.org/1999/xlink">
	<defs/>
	<path id="Vector" d="M12.87 12.88C12.78 12.97 12.65 13.02 12.52 13.02C12.39 13.02 12.26 12.97 12.16 12.88L9.46 10.17C8.33 11.13 6.86 11.6 5.38 11.51C3.9 11.41 2.51 10.75 1.51 9.65C0.51 8.56 -0.04 7.12 0 5.63C0.03 4.15 0.63 2.73 1.68 1.68C2.73 0.63 4.15 0.03 5.63 0C7.12 -0.04 8.56 0.51 9.65 1.51C10.75 2.51 11.41 3.9 11.51 5.38C11.6 6.86 11.13 8.33 10.17 9.46L12.87 12.16C12.92 12.21 12.95 12.27 12.98 12.33C13.01 12.39 13.02 12.45 13.02 12.52C13.02 12.59 13.01 12.65 12.98 12.71C12.95 12.77 12.92 12.83 12.87 12.88ZM5.77 10.52C6.71 10.52 7.63 10.24 8.41 9.72C9.19 9.2 9.8 8.46 10.16 7.59C10.52 6.72 10.61 5.76 10.43 4.84C10.25 3.92 9.79 3.08 9.13 2.41C8.46 1.75 7.62 1.29 6.7 1.11C5.78 0.93 4.82 1.02 3.95 1.38C3.08 1.74 2.34 2.35 1.82 3.13C1.3 3.91 1.02 4.83 1.02 5.77C1.02 7.03 1.52 8.24 2.41 9.13C3.3 10.02 4.51 10.52 5.77 10.52Z" fill="#FFFFFF" fill-opacity="0.200000" fill-rule="nonzero"/>
</svg>
